<mxfile host="app.diagrams.net" agent="Mozilla/5.0 (Windows NT 10.0; Win64; x64; rv:137.0) Gecko/20100101 Firefox/137.0" version="26.2.13">
  <diagram name="Page-1" id="0783ab3e-0a74-02c8-0abd-f7b4e66b4bec">
    <mxGraphModel dx="2633" dy="821" grid="0" gridSize="10" guides="1" tooltips="1" connect="1" arrows="1" fold="1" page="0" pageScale="1" pageWidth="850" pageHeight="1100" background="none" math="0" shadow="0">
      <root>
        <mxCell id="0" />
        <mxCell id="1" parent="0" />
        <mxCell id="1c1d494c118603dd-1" value="Авторемонтный бизнес" style="swimlane;html=1;childLayout=stackLayout;startSize=20;rounded=0;shadow=0;comic=0;labelBackgroundColor=none;strokeWidth=1;fontFamily=Verdana;fontSize=12;align=center;" parent="1" vertex="1">
          <mxGeometry x="-482" y="24" width="1000" height="952" as="geometry" />
        </mxCell>
        <mxCell id="1c1d494c118603dd-2" value="Клиент" style="swimlane;html=1;startSize=20;" parent="1c1d494c118603dd-1" vertex="1">
          <mxGeometry y="20" width="250" height="932" as="geometry" />
        </mxCell>
        <mxCell id="1c1d494c118603dd-6" value="Узнать информацию по услугам" style="rounded=1;whiteSpace=wrap;html=1;shadow=0;comic=0;labelBackgroundColor=none;strokeWidth=1;fontFamily=Verdana;fontSize=12;align=center;arcSize=50;" parent="1c1d494c118603dd-2" vertex="1">
          <mxGeometry x="55" y="160" width="130" height="40" as="geometry" />
        </mxCell>
        <mxCell id="mRWU8JhYGGB55TLCzHCI-21" style="edgeStyle=orthogonalEdgeStyle;rounded=0;orthogonalLoop=1;jettySize=auto;html=1;exitX=0.5;exitY=1;exitDx=0;exitDy=0;entryX=0.5;entryY=0;entryDx=0;entryDy=0;" edge="1" parent="1c1d494c118603dd-2" source="60571a20871a0731-4" target="60571a20871a0731-8">
          <mxGeometry relative="1" as="geometry" />
        </mxCell>
        <mxCell id="60571a20871a0731-4" value="" style="ellipse;whiteSpace=wrap;html=1;rounded=0;shadow=0;comic=0;labelBackgroundColor=none;strokeWidth=1;fillColor=#000000;fontFamily=Verdana;fontSize=12;align=center;" parent="1c1d494c118603dd-2" vertex="1">
          <mxGeometry x="100" y="30" width="40" height="40" as="geometry" />
        </mxCell>
        <mxCell id="ITNqKYcbNvVYaU0ilECt-60" style="edgeStyle=orthogonalEdgeStyle;rounded=0;orthogonalLoop=1;jettySize=auto;html=1;exitX=0.5;exitY=1;exitDx=0;exitDy=0;entryX=0.5;entryY=0;entryDx=0;entryDy=0;" parent="1c1d494c118603dd-2" source="60571a20871a0731-8" target="ITNqKYcbNvVYaU0ilECt-59" edge="1">
          <mxGeometry relative="1" as="geometry" />
        </mxCell>
        <mxCell id="60571a20871a0731-8" value="Авторизироваться" style="rounded=1;whiteSpace=wrap;html=1;shadow=0;comic=0;labelBackgroundColor=none;strokeWidth=1;fontFamily=Verdana;fontSize=12;align=center;arcSize=50;" parent="1c1d494c118603dd-2" vertex="1">
          <mxGeometry x="51" y="85" width="138" height="30" as="geometry" />
        </mxCell>
        <mxCell id="ITNqKYcbNvVYaU0ilECt-21" style="edgeStyle=orthogonalEdgeStyle;rounded=0;orthogonalLoop=1;jettySize=auto;html=1;exitX=0;exitY=0.5;exitDx=0;exitDy=0;entryX=0;entryY=0.5;entryDx=0;entryDy=0;" parent="1c1d494c118603dd-2" source="ITNqKYcbNvVYaU0ilECt-17" target="ITNqKYcbNvVYaU0ilECt-59" edge="1">
          <mxGeometry relative="1" as="geometry">
            <Array as="points">
              <mxPoint x="30" y="323" />
              <mxPoint x="30" y="140" />
            </Array>
          </mxGeometry>
        </mxCell>
        <mxCell id="ITNqKYcbNvVYaU0ilECt-17" value="" style="rhombus;whiteSpace=wrap;html=1;" parent="1c1d494c118603dd-2" vertex="1">
          <mxGeometry x="100" y="313" width="40" height="20" as="geometry" />
        </mxCell>
        <mxCell id="ITNqKYcbNvVYaU0ilECt-27" value="Информации достаточно" style="text;html=1;align=center;verticalAlign=middle;whiteSpace=wrap;rounded=0;" parent="1c1d494c118603dd-2" vertex="1">
          <mxGeometry x="133.5" y="340" width="60" height="30" as="geometry" />
        </mxCell>
        <mxCell id="mRWU8JhYGGB55TLCzHCI-18" style="edgeStyle=orthogonalEdgeStyle;rounded=0;orthogonalLoop=1;jettySize=auto;html=1;exitX=0.5;exitY=1;exitDx=0;exitDy=0;entryX=0.5;entryY=0;entryDx=0;entryDy=0;" edge="1" parent="1c1d494c118603dd-2" source="ITNqKYcbNvVYaU0ilECt-29" target="ITNqKYcbNvVYaU0ilECt-38">
          <mxGeometry relative="1" as="geometry" />
        </mxCell>
        <mxCell id="ITNqKYcbNvVYaU0ilECt-29" value="Оформить заказ" style="rounded=1;whiteSpace=wrap;html=1;shadow=0;comic=0;labelBackgroundColor=none;strokeWidth=1;fontFamily=Verdana;fontSize=12;align=center;arcSize=50;" parent="1c1d494c118603dd-2" vertex="1">
          <mxGeometry x="55" y="470" width="130" height="40" as="geometry" />
        </mxCell>
        <mxCell id="60571a20871a0731-5" value="" style="shape=mxgraph.bpmn.shape;html=1;verticalLabelPosition=bottom;labelBackgroundColor=#ffffff;verticalAlign=top;perimeter=ellipsePerimeter;outline=end;symbol=terminate;rounded=0;shadow=0;comic=0;strokeWidth=1;fontFamily=Verdana;fontSize=12;align=center;" parent="1c1d494c118603dd-2" vertex="1">
          <mxGeometry x="95" y="879" width="40" height="40" as="geometry" />
        </mxCell>
        <mxCell id="mRWU8JhYGGB55TLCzHCI-17" style="edgeStyle=orthogonalEdgeStyle;rounded=0;orthogonalLoop=1;jettySize=auto;html=1;exitX=0.5;exitY=1;exitDx=0;exitDy=0;entryX=0.5;entryY=0;entryDx=0;entryDy=0;" edge="1" parent="1c1d494c118603dd-2" source="ITNqKYcbNvVYaU0ilECt-38" target="ITNqKYcbNvVYaU0ilECt-40">
          <mxGeometry relative="1" as="geometry" />
        </mxCell>
        <mxCell id="ITNqKYcbNvVYaU0ilECt-38" value="" style="whiteSpace=wrap;html=1;rounded=0;shadow=0;comic=0;labelBackgroundColor=none;strokeWidth=1;fillColor=#000000;fontFamily=Verdana;fontSize=12;align=center;rotation=0;" parent="1c1d494c118603dd-2" vertex="1">
          <mxGeometry x="46.5" y="530" width="147" height="10" as="geometry" />
        </mxCell>
        <mxCell id="ITNqKYcbNvVYaU0ilECt-40" value="Привезти машину в салон" style="rounded=1;whiteSpace=wrap;html=1;shadow=0;comic=0;labelBackgroundColor=none;strokeWidth=1;fontFamily=Verdana;fontSize=12;align=center;arcSize=50;" parent="1c1d494c118603dd-2" vertex="1">
          <mxGeometry x="55" y="580" width="130" height="40" as="geometry" />
        </mxCell>
        <mxCell id="mRWU8JhYGGB55TLCzHCI-99" style="edgeStyle=orthogonalEdgeStyle;rounded=0;orthogonalLoop=1;jettySize=auto;html=1;exitX=0.5;exitY=1;exitDx=0;exitDy=0;entryX=0.5;entryY=0;entryDx=0;entryDy=0;" edge="1" parent="1c1d494c118603dd-2" source="ITNqKYcbNvVYaU0ilECt-56" target="60571a20871a0731-5">
          <mxGeometry relative="1" as="geometry" />
        </mxCell>
        <mxCell id="ITNqKYcbNvVYaU0ilECt-56" value="Оплатить заказ" style="rounded=1;whiteSpace=wrap;html=1;shadow=0;comic=0;labelBackgroundColor=none;strokeWidth=1;fontFamily=Verdana;fontSize=12;align=center;arcSize=50;" parent="1c1d494c118603dd-2" vertex="1">
          <mxGeometry x="49" y="810" width="130" height="40" as="geometry" />
        </mxCell>
        <mxCell id="ITNqKYcbNvVYaU0ilECt-61" style="edgeStyle=orthogonalEdgeStyle;rounded=0;orthogonalLoop=1;jettySize=auto;html=1;exitX=0.5;exitY=1;exitDx=0;exitDy=0;entryX=0.5;entryY=0;entryDx=0;entryDy=0;" parent="1c1d494c118603dd-2" source="ITNqKYcbNvVYaU0ilECt-59" target="1c1d494c118603dd-6" edge="1">
          <mxGeometry relative="1" as="geometry" />
        </mxCell>
        <mxCell id="ITNqKYcbNvVYaU0ilECt-59" value="" style="rhombus;whiteSpace=wrap;html=1;" parent="1c1d494c118603dd-2" vertex="1">
          <mxGeometry x="100" y="130" width="40" height="20" as="geometry" />
        </mxCell>
        <mxCell id="ITNqKYcbNvVYaU0ilECt-25" value="Уточнить информацию" style="text;html=1;align=center;verticalAlign=middle;whiteSpace=wrap;rounded=0;" parent="1c1d494c118603dd-2" vertex="1">
          <mxGeometry x="35" y="204" width="65" height="30" as="geometry" />
        </mxCell>
        <mxCell id="mRWU8JhYGGB55TLCzHCI-6" style="edgeStyle=orthogonalEdgeStyle;rounded=0;orthogonalLoop=1;jettySize=auto;html=1;exitX=0.5;exitY=1;exitDx=0;exitDy=0;entryX=0.5;entryY=0;entryDx=0;entryDy=0;" edge="1" parent="1c1d494c118603dd-2" source="mRWU8JhYGGB55TLCzHCI-4" target="ITNqKYcbNvVYaU0ilECt-56">
          <mxGeometry relative="1" as="geometry" />
        </mxCell>
        <mxCell id="mRWU8JhYGGB55TLCzHCI-14" style="edgeStyle=orthogonalEdgeStyle;rounded=0;orthogonalLoop=1;jettySize=auto;html=1;exitX=0;exitY=0.5;exitDx=0;exitDy=0;entryX=0;entryY=0.5;entryDx=0;entryDy=0;" edge="1" parent="1c1d494c118603dd-2" source="mRWU8JhYGGB55TLCzHCI-4" target="mRWU8JhYGGB55TLCzHCI-10">
          <mxGeometry relative="1" as="geometry">
            <Array as="points">
              <mxPoint x="40" y="760" />
              <mxPoint x="40" y="445" />
            </Array>
          </mxGeometry>
        </mxCell>
        <mxCell id="mRWU8JhYGGB55TLCzHCI-4" value="" style="rhombus;whiteSpace=wrap;html=1;" vertex="1" parent="1c1d494c118603dd-2">
          <mxGeometry x="93.5" y="750" width="40" height="20" as="geometry" />
        </mxCell>
        <mxCell id="mRWU8JhYGGB55TLCzHCI-8" value="Клиент доволен результатом" style="text;html=1;align=center;verticalAlign=middle;whiteSpace=wrap;rounded=0;" vertex="1" parent="1c1d494c118603dd-2">
          <mxGeometry x="113.5" y="773" width="100" height="30" as="geometry" />
        </mxCell>
        <mxCell id="mRWU8JhYGGB55TLCzHCI-20" style="edgeStyle=orthogonalEdgeStyle;rounded=0;orthogonalLoop=1;jettySize=auto;html=1;exitX=0.5;exitY=1;exitDx=0;exitDy=0;entryX=0.5;entryY=0;entryDx=0;entryDy=0;" edge="1" parent="1c1d494c118603dd-2" source="mRWU8JhYGGB55TLCzHCI-10" target="ITNqKYcbNvVYaU0ilECt-29">
          <mxGeometry relative="1" as="geometry" />
        </mxCell>
        <mxCell id="mRWU8JhYGGB55TLCzHCI-10" value="" style="rhombus;whiteSpace=wrap;html=1;" vertex="1" parent="1c1d494c118603dd-2">
          <mxGeometry x="100" y="435" width="40" height="20" as="geometry" />
        </mxCell>
        <mxCell id="mRWU8JhYGGB55TLCzHCI-9" value="Клиент не доволен результатом" style="text;html=1;align=center;verticalAlign=middle;whiteSpace=wrap;rounded=0;" vertex="1" parent="1c1d494c118603dd-2">
          <mxGeometry x="35" y="670" width="110" height="30" as="geometry" />
        </mxCell>
        <mxCell id="ITNqKYcbNvVYaU0ilECt-14" value="Получить информацию по услугам" style="rounded=1;whiteSpace=wrap;html=1;shadow=0;comic=0;labelBackgroundColor=none;strokeWidth=1;fontFamily=Verdana;fontSize=12;align=center;arcSize=50;" parent="1c1d494c118603dd-2" vertex="1">
          <mxGeometry x="55" y="240" width="130" height="40" as="geometry" />
        </mxCell>
        <mxCell id="ITNqKYcbNvVYaU0ilECt-18" style="edgeStyle=orthogonalEdgeStyle;rounded=0;orthogonalLoop=1;jettySize=auto;html=1;exitX=0.5;exitY=1;exitDx=0;exitDy=0;entryX=0.5;entryY=0;entryDx=0;entryDy=0;" parent="1c1d494c118603dd-2" source="ITNqKYcbNvVYaU0ilECt-14" target="ITNqKYcbNvVYaU0ilECt-17" edge="1">
          <mxGeometry relative="1" as="geometry" />
        </mxCell>
        <mxCell id="1c1d494c118603dd-3" value="Веб-сайт" style="swimlane;html=1;startSize=20;" parent="1c1d494c118603dd-1" vertex="1">
          <mxGeometry x="250" y="20" width="250" height="932" as="geometry" />
        </mxCell>
        <mxCell id="ITNqKYcbNvVYaU0ilECt-9" value="Передать вопрос оператору" style="rounded=1;whiteSpace=wrap;html=1;shadow=0;comic=0;labelBackgroundColor=none;strokeWidth=1;fontFamily=Verdana;fontSize=12;align=center;arcSize=50;" parent="1c1d494c118603dd-3" vertex="1">
          <mxGeometry x="60" y="160" width="130" height="40" as="geometry" />
        </mxCell>
        <mxCell id="ITNqKYcbNvVYaU0ilECt-31" value="Передать заказ в базу" style="rounded=1;whiteSpace=wrap;html=1;shadow=0;comic=0;labelBackgroundColor=none;strokeWidth=1;fontFamily=Verdana;fontSize=12;align=center;arcSize=50;" parent="1c1d494c118603dd-3" vertex="1">
          <mxGeometry x="59" y="540" width="130" height="40" as="geometry" />
        </mxCell>
        <mxCell id="ITNqKYcbNvVYaU0ilECt-54" value="Удалить заказ из базы" style="rounded=1;whiteSpace=wrap;html=1;shadow=0;comic=0;labelBackgroundColor=none;strokeWidth=1;fontFamily=Verdana;fontSize=12;align=center;arcSize=50;" parent="1c1d494c118603dd-3" vertex="1">
          <mxGeometry x="50" y="780" width="130" height="40" as="geometry" />
        </mxCell>
        <mxCell id="ITNqKYcbNvVYaU0ilECt-62" value="Передать ответ клиенту" style="rounded=1;whiteSpace=wrap;html=1;shadow=0;comic=0;labelBackgroundColor=none;strokeWidth=1;fontFamily=Verdana;fontSize=12;align=center;arcSize=50;" parent="1c1d494c118603dd-3" vertex="1">
          <mxGeometry x="59" y="240" width="130" height="40" as="geometry" />
        </mxCell>
        <mxCell id="1c1d494c118603dd-4" value="Оператор" style="swimlane;html=1;startSize=20;" parent="1c1d494c118603dd-1" vertex="1">
          <mxGeometry x="500" y="20" width="250" height="932" as="geometry" />
        </mxCell>
        <mxCell id="ITNqKYcbNvVYaU0ilECt-11" value="Дать ответ на вопрос" style="rounded=1;whiteSpace=wrap;html=1;shadow=0;comic=0;labelBackgroundColor=none;strokeWidth=1;fontFamily=Verdana;fontSize=12;align=center;arcSize=50;" parent="1c1d494c118603dd-4" vertex="1">
          <mxGeometry x="60" y="160" width="130" height="40" as="geometry" />
        </mxCell>
        <mxCell id="ITNqKYcbNvVYaU0ilECt-6" value="Механик" style="swimlane;html=1;startSize=20;" parent="1c1d494c118603dd-1" vertex="1">
          <mxGeometry x="750" y="20" width="250" height="932" as="geometry" />
        </mxCell>
        <mxCell id="ITNqKYcbNvVYaU0ilECt-49" style="edgeStyle=orthogonalEdgeStyle;rounded=0;orthogonalLoop=1;jettySize=auto;html=1;exitX=0.5;exitY=1;exitDx=0;exitDy=0;entryX=0.5;entryY=0;entryDx=0;entryDy=0;" parent="ITNqKYcbNvVYaU0ilECt-6" source="ITNqKYcbNvVYaU0ilECt-43" target="ITNqKYcbNvVYaU0ilECt-47" edge="1">
          <mxGeometry relative="1" as="geometry" />
        </mxCell>
        <mxCell id="ITNqKYcbNvVYaU0ilECt-43" value="" style="whiteSpace=wrap;html=1;rounded=0;shadow=0;comic=0;labelBackgroundColor=none;strokeWidth=1;fillColor=#000000;fontFamily=Verdana;fontSize=12;align=center;rotation=0;" parent="ITNqKYcbNvVYaU0ilECt-6" vertex="1">
          <mxGeometry x="50" y="595" width="147" height="10" as="geometry" />
        </mxCell>
        <mxCell id="ITNqKYcbNvVYaU0ilECt-52" style="edgeStyle=orthogonalEdgeStyle;rounded=0;orthogonalLoop=1;jettySize=auto;html=1;exitX=0.5;exitY=1;exitDx=0;exitDy=0;entryX=0.5;entryY=0;entryDx=0;entryDy=0;" parent="ITNqKYcbNvVYaU0ilECt-6" source="ITNqKYcbNvVYaU0ilECt-47" target="ITNqKYcbNvVYaU0ilECt-50" edge="1">
          <mxGeometry relative="1" as="geometry" />
        </mxCell>
        <mxCell id="ITNqKYcbNvVYaU0ilECt-47" value="Принять заказ в работу" style="rounded=1;whiteSpace=wrap;html=1;shadow=0;comic=0;labelBackgroundColor=none;strokeWidth=1;fontFamily=Verdana;fontSize=12;align=center;arcSize=50;" parent="ITNqKYcbNvVYaU0ilECt-6" vertex="1">
          <mxGeometry x="58.5" y="620" width="130" height="40" as="geometry" />
        </mxCell>
        <mxCell id="ITNqKYcbNvVYaU0ilECt-53" style="edgeStyle=orthogonalEdgeStyle;rounded=0;orthogonalLoop=1;jettySize=auto;html=1;exitX=0.5;exitY=1;exitDx=0;exitDy=0;entryX=0.5;entryY=0;entryDx=0;entryDy=0;" parent="ITNqKYcbNvVYaU0ilECt-6" source="ITNqKYcbNvVYaU0ilECt-50" target="ITNqKYcbNvVYaU0ilECt-51" edge="1">
          <mxGeometry relative="1" as="geometry" />
        </mxCell>
        <mxCell id="ITNqKYcbNvVYaU0ilECt-50" value="Выполнить заказ" style="rounded=1;whiteSpace=wrap;html=1;shadow=0;comic=0;labelBackgroundColor=none;strokeWidth=1;fontFamily=Verdana;fontSize=12;align=center;arcSize=50;" parent="ITNqKYcbNvVYaU0ilECt-6" vertex="1">
          <mxGeometry x="58.5" y="676" width="130" height="40" as="geometry" />
        </mxCell>
        <mxCell id="ITNqKYcbNvVYaU0ilECt-51" value="" style="whiteSpace=wrap;html=1;rounded=0;shadow=0;comic=0;labelBackgroundColor=none;strokeWidth=1;fillColor=#000000;fontFamily=Verdana;fontSize=12;align=center;rotation=0;" parent="ITNqKYcbNvVYaU0ilECt-6" vertex="1">
          <mxGeometry x="50.5" y="731" width="147" height="10" as="geometry" />
        </mxCell>
        <mxCell id="ITNqKYcbNvVYaU0ilECt-10" style="edgeStyle=orthogonalEdgeStyle;rounded=0;orthogonalLoop=1;jettySize=auto;html=1;exitX=1;exitY=0.5;exitDx=0;exitDy=0;entryX=0;entryY=0.5;entryDx=0;entryDy=0;" parent="1c1d494c118603dd-1" source="1c1d494c118603dd-6" target="ITNqKYcbNvVYaU0ilECt-9" edge="1">
          <mxGeometry relative="1" as="geometry" />
        </mxCell>
        <mxCell id="ITNqKYcbNvVYaU0ilECt-12" style="edgeStyle=orthogonalEdgeStyle;rounded=0;orthogonalLoop=1;jettySize=auto;html=1;exitX=1;exitY=0.5;exitDx=0;exitDy=0;entryX=0;entryY=0.5;entryDx=0;entryDy=0;" parent="1c1d494c118603dd-1" source="ITNqKYcbNvVYaU0ilECt-9" target="ITNqKYcbNvVYaU0ilECt-11" edge="1">
          <mxGeometry relative="1" as="geometry" />
        </mxCell>
        <mxCell id="ITNqKYcbNvVYaU0ilECt-44" style="edgeStyle=orthogonalEdgeStyle;rounded=0;orthogonalLoop=1;jettySize=auto;html=1;exitX=0.75;exitY=1;exitDx=0;exitDy=0;entryX=0;entryY=0.5;entryDx=0;entryDy=0;" parent="1c1d494c118603dd-1" source="ITNqKYcbNvVYaU0ilECt-38" target="ITNqKYcbNvVYaU0ilECt-31" edge="1">
          <mxGeometry relative="1" as="geometry" />
        </mxCell>
        <mxCell id="ITNqKYcbNvVYaU0ilECt-45" style="edgeStyle=orthogonalEdgeStyle;rounded=0;orthogonalLoop=1;jettySize=auto;html=1;exitX=1;exitY=0.5;exitDx=0;exitDy=0;entryX=0.5;entryY=0;entryDx=0;entryDy=0;" parent="1c1d494c118603dd-1" source="ITNqKYcbNvVYaU0ilECt-31" target="ITNqKYcbNvVYaU0ilECt-43" edge="1">
          <mxGeometry relative="1" as="geometry" />
        </mxCell>
        <mxCell id="ITNqKYcbNvVYaU0ilECt-46" style="edgeStyle=orthogonalEdgeStyle;rounded=0;orthogonalLoop=1;jettySize=auto;html=1;exitX=1;exitY=0.5;exitDx=0;exitDy=0;entryX=0;entryY=0.75;entryDx=0;entryDy=0;" parent="1c1d494c118603dd-1" source="ITNqKYcbNvVYaU0ilECt-40" target="ITNqKYcbNvVYaU0ilECt-43" edge="1">
          <mxGeometry relative="1" as="geometry">
            <Array as="points">
              <mxPoint x="800" y="620" />
            </Array>
          </mxGeometry>
        </mxCell>
        <mxCell id="ITNqKYcbNvVYaU0ilECt-64" style="edgeStyle=orthogonalEdgeStyle;rounded=0;orthogonalLoop=1;jettySize=auto;html=1;exitX=0.5;exitY=1;exitDx=0;exitDy=0;entryX=1;entryY=0.5;entryDx=0;entryDy=0;" parent="1c1d494c118603dd-1" source="ITNqKYcbNvVYaU0ilECt-11" target="ITNqKYcbNvVYaU0ilECt-62" edge="1">
          <mxGeometry relative="1" as="geometry" />
        </mxCell>
        <mxCell id="ITNqKYcbNvVYaU0ilECt-70" style="edgeStyle=orthogonalEdgeStyle;rounded=0;orthogonalLoop=1;jettySize=auto;html=1;exitX=0.5;exitY=1;exitDx=0;exitDy=0;entryX=1;entryY=0.5;entryDx=0;entryDy=0;" parent="1c1d494c118603dd-1" source="ITNqKYcbNvVYaU0ilECt-51" target="ITNqKYcbNvVYaU0ilECt-54" edge="1">
          <mxGeometry relative="1" as="geometry" />
        </mxCell>
        <mxCell id="mRWU8JhYGGB55TLCzHCI-5" style="edgeStyle=orthogonalEdgeStyle;rounded=0;orthogonalLoop=1;jettySize=auto;html=1;exitX=0.25;exitY=1;exitDx=0;exitDy=0;entryX=1;entryY=0.5;entryDx=0;entryDy=0;" edge="1" parent="1c1d494c118603dd-1" source="ITNqKYcbNvVYaU0ilECt-51" target="mRWU8JhYGGB55TLCzHCI-4">
          <mxGeometry relative="1" as="geometry">
            <Array as="points">
              <mxPoint x="837" y="780" />
            </Array>
          </mxGeometry>
        </mxCell>
        <mxCell id="ITNqKYcbNvVYaU0ilECt-63" style="edgeStyle=orthogonalEdgeStyle;rounded=0;orthogonalLoop=1;jettySize=auto;html=1;exitX=0;exitY=0.5;exitDx=0;exitDy=0;entryX=1;entryY=0.5;entryDx=0;entryDy=0;" parent="1c1d494c118603dd-1" source="ITNqKYcbNvVYaU0ilECt-62" target="ITNqKYcbNvVYaU0ilECt-14" edge="1">
          <mxGeometry relative="1" as="geometry" />
        </mxCell>
        <mxCell id="mRWU8JhYGGB55TLCzHCI-100" style="edgeStyle=orthogonalEdgeStyle;rounded=0;orthogonalLoop=1;jettySize=auto;html=1;exitX=0.5;exitY=0;exitDx=0;exitDy=0;entryX=1;entryY=0.5;entryDx=0;entryDy=0;" edge="1" parent="1c1d494c118603dd-1" source="ITNqKYcbNvVYaU0ilECt-54" target="mRWU8JhYGGB55TLCzHCI-4">
          <mxGeometry relative="1" as="geometry" />
        </mxCell>
        <mxCell id="mRWU8JhYGGB55TLCzHCI-19" style="edgeStyle=orthogonalEdgeStyle;rounded=0;orthogonalLoop=1;jettySize=auto;html=1;exitX=0.5;exitY=1;exitDx=0;exitDy=0;entryX=0.5;entryY=0;entryDx=0;entryDy=0;" edge="1" parent="1" source="ITNqKYcbNvVYaU0ilECt-13" target="mRWU8JhYGGB55TLCzHCI-10">
          <mxGeometry relative="1" as="geometry">
            <Array as="points">
              <mxPoint x="160" y="459" />
              <mxPoint x="-362" y="459" />
            </Array>
          </mxGeometry>
        </mxCell>
        <mxCell id="ITNqKYcbNvVYaU0ilECt-13" value="Собрать корзину с товарами" style="rounded=1;whiteSpace=wrap;html=1;shadow=0;comic=0;labelBackgroundColor=none;strokeWidth=1;fontFamily=Verdana;fontSize=12;align=center;arcSize=50;" parent="1" vertex="1">
          <mxGeometry x="95" y="410" width="130" height="40" as="geometry" />
        </mxCell>
        <mxCell id="ITNqKYcbNvVYaU0ilECt-22" style="edgeStyle=orthogonalEdgeStyle;rounded=0;orthogonalLoop=1;jettySize=auto;html=1;exitX=0.5;exitY=1;exitDx=0;exitDy=0;entryX=0.5;entryY=0;entryDx=0;entryDy=0;" parent="1" source="ITNqKYcbNvVYaU0ilECt-17" target="ITNqKYcbNvVYaU0ilECt-13" edge="1">
          <mxGeometry relative="1" as="geometry">
            <Array as="points">
              <mxPoint x="-362" y="397" />
              <mxPoint x="160" y="397" />
            </Array>
          </mxGeometry>
        </mxCell>
        <mxCell id="mRWU8JhYGGB55TLCzHCI-22" value="Авторемонтный бизнес" style="swimlane;html=1;childLayout=stackLayout;startSize=20;rounded=0;shadow=0;comic=0;labelBackgroundColor=none;strokeWidth=1;fontFamily=Verdana;fontSize=12;align=center;" vertex="1" parent="1">
          <mxGeometry x="682" y="24" width="500" height="738" as="geometry" />
        </mxCell>
        <mxCell id="mRWU8JhYGGB55TLCzHCI-23" value="Клиент" style="swimlane;html=1;startSize=20;" vertex="1" parent="mRWU8JhYGGB55TLCzHCI-22">
          <mxGeometry y="20" width="250" height="718" as="geometry" />
        </mxCell>
        <mxCell id="mRWU8JhYGGB55TLCzHCI-78" style="edgeStyle=orthogonalEdgeStyle;rounded=0;orthogonalLoop=1;jettySize=auto;html=1;exitX=0.5;exitY=1;exitDx=0;exitDy=0;entryX=0.5;entryY=0;entryDx=0;entryDy=0;" edge="1" parent="mRWU8JhYGGB55TLCzHCI-23" source="mRWU8JhYGGB55TLCzHCI-79" target="mRWU8JhYGGB55TLCzHCI-80">
          <mxGeometry relative="1" as="geometry" />
        </mxCell>
        <mxCell id="mRWU8JhYGGB55TLCzHCI-79" value="" style="ellipse;whiteSpace=wrap;html=1;rounded=0;shadow=0;comic=0;labelBackgroundColor=none;strokeWidth=1;fillColor=#000000;fontFamily=Verdana;fontSize=12;align=center;" vertex="1" parent="mRWU8JhYGGB55TLCzHCI-23">
          <mxGeometry x="105" y="37" width="40" height="40" as="geometry" />
        </mxCell>
        <mxCell id="mRWU8JhYGGB55TLCzHCI-80" value="Авторизироваться" style="rounded=1;whiteSpace=wrap;html=1;shadow=0;comic=0;labelBackgroundColor=none;strokeWidth=1;fontFamily=Verdana;fontSize=12;align=center;arcSize=50;" vertex="1" parent="mRWU8JhYGGB55TLCzHCI-23">
          <mxGeometry x="56" y="92" width="138" height="30" as="geometry" />
        </mxCell>
        <mxCell id="mRWU8JhYGGB55TLCzHCI-87" style="edgeStyle=orthogonalEdgeStyle;rounded=0;orthogonalLoop=1;jettySize=auto;html=1;exitX=0;exitY=0.5;exitDx=0;exitDy=0;entryX=0;entryY=0.5;entryDx=0;entryDy=0;" edge="1" parent="mRWU8JhYGGB55TLCzHCI-23" source="mRWU8JhYGGB55TLCzHCI-84" target="mRWU8JhYGGB55TLCzHCI-86">
          <mxGeometry relative="1" as="geometry">
            <Array as="points">
              <mxPoint x="41" y="284" />
              <mxPoint x="41" y="649" />
            </Array>
          </mxGeometry>
        </mxCell>
        <mxCell id="mRWU8JhYGGB55TLCzHCI-84" value="" style="rhombus;whiteSpace=wrap;html=1;" vertex="1" parent="mRWU8JhYGGB55TLCzHCI-23">
          <mxGeometry x="105" y="274" width="40" height="20" as="geometry" />
        </mxCell>
        <mxCell id="mRWU8JhYGGB55TLCzHCI-86" value="" style="shape=mxgraph.bpmn.shape;html=1;verticalLabelPosition=bottom;labelBackgroundColor=#ffffff;verticalAlign=top;perimeter=ellipsePerimeter;outline=end;symbol=terminate;rounded=0;shadow=0;comic=0;strokeWidth=1;fontFamily=Verdana;fontSize=12;align=center;" vertex="1" parent="mRWU8JhYGGB55TLCzHCI-23">
          <mxGeometry x="105" y="629" width="40" height="40" as="geometry" />
        </mxCell>
        <mxCell id="mRWU8JhYGGB55TLCzHCI-88" value="Написать текст отзыва приложить и приложить фотографии работы" style="rounded=1;whiteSpace=wrap;html=1;shadow=0;comic=0;labelBackgroundColor=none;strokeWidth=1;fontFamily=Verdana;fontSize=12;align=center;arcSize=50;" vertex="1" parent="mRWU8JhYGGB55TLCzHCI-23">
          <mxGeometry x="45.879999999999995" y="518" width="158.25" height="62" as="geometry" />
        </mxCell>
        <mxCell id="mRWU8JhYGGB55TLCzHCI-93" value="Отказ" style="text;html=1;align=center;verticalAlign=middle;whiteSpace=wrap;rounded=0;" vertex="1" parent="mRWU8JhYGGB55TLCzHCI-23">
          <mxGeometry x="41" y="261" width="60" height="30" as="geometry" />
        </mxCell>
        <mxCell id="mRWU8JhYGGB55TLCzHCI-94" value="Согласие" style="text;html=1;align=center;verticalAlign=middle;whiteSpace=wrap;rounded=0;" vertex="1" parent="mRWU8JhYGGB55TLCzHCI-23">
          <mxGeometry x="156" y="258" width="60" height="30" as="geometry" />
        </mxCell>
        <mxCell id="mRWU8JhYGGB55TLCzHCI-50" value="Веб-сайт" style="swimlane;html=1;startSize=20;" vertex="1" parent="mRWU8JhYGGB55TLCzHCI-22">
          <mxGeometry x="250" y="20" width="250" height="718" as="geometry" />
        </mxCell>
        <mxCell id="mRWU8JhYGGB55TLCzHCI-81" value="Отправить уведомление с предложением оставить отзыв" style="rounded=1;whiteSpace=wrap;html=1;shadow=0;comic=0;labelBackgroundColor=none;strokeWidth=1;fontFamily=Verdana;fontSize=12;align=center;arcSize=50;" vertex="1" parent="mRWU8JhYGGB55TLCzHCI-50">
          <mxGeometry x="28.5" y="149" width="198.5" height="62" as="geometry" />
        </mxCell>
        <mxCell id="mRWU8JhYGGB55TLCzHCI-89" value="Положить отзыв в базу и опубликовать на сайте" style="rounded=1;whiteSpace=wrap;html=1;shadow=0;comic=0;labelBackgroundColor=none;strokeWidth=1;fontFamily=Verdana;fontSize=12;align=center;arcSize=50;" vertex="1" parent="mRWU8JhYGGB55TLCzHCI-50">
          <mxGeometry x="48.629999999999995" y="518" width="158.25" height="62" as="geometry" />
        </mxCell>
        <mxCell id="mRWU8JhYGGB55TLCzHCI-95" value="Отправить форму для написания отзыва" style="rounded=1;whiteSpace=wrap;html=1;shadow=0;comic=0;labelBackgroundColor=none;strokeWidth=1;fontFamily=Verdana;fontSize=12;align=center;arcSize=50;" vertex="1" parent="mRWU8JhYGGB55TLCzHCI-50">
          <mxGeometry x="48.629999999999995" y="254" width="158.25" height="62" as="geometry" />
        </mxCell>
        <mxCell id="mRWU8JhYGGB55TLCzHCI-82" style="edgeStyle=orthogonalEdgeStyle;rounded=0;orthogonalLoop=1;jettySize=auto;html=1;exitX=1;exitY=0.5;exitDx=0;exitDy=0;entryX=0.5;entryY=0;entryDx=0;entryDy=0;" edge="1" parent="mRWU8JhYGGB55TLCzHCI-22" source="mRWU8JhYGGB55TLCzHCI-80" target="mRWU8JhYGGB55TLCzHCI-81">
          <mxGeometry relative="1" as="geometry" />
        </mxCell>
        <mxCell id="mRWU8JhYGGB55TLCzHCI-85" style="edgeStyle=orthogonalEdgeStyle;rounded=0;orthogonalLoop=1;jettySize=auto;html=1;exitX=0.5;exitY=1;exitDx=0;exitDy=0;entryX=0.5;entryY=0;entryDx=0;entryDy=0;" edge="1" parent="mRWU8JhYGGB55TLCzHCI-22" source="mRWU8JhYGGB55TLCzHCI-81" target="mRWU8JhYGGB55TLCzHCI-84">
          <mxGeometry relative="1" as="geometry" />
        </mxCell>
        <mxCell id="mRWU8JhYGGB55TLCzHCI-91" style="edgeStyle=orthogonalEdgeStyle;rounded=0;orthogonalLoop=1;jettySize=auto;html=1;exitX=1;exitY=0.5;exitDx=0;exitDy=0;entryX=0;entryY=0.5;entryDx=0;entryDy=0;" edge="1" parent="mRWU8JhYGGB55TLCzHCI-22" source="mRWU8JhYGGB55TLCzHCI-88" target="mRWU8JhYGGB55TLCzHCI-89">
          <mxGeometry relative="1" as="geometry" />
        </mxCell>
        <mxCell id="mRWU8JhYGGB55TLCzHCI-92" style="edgeStyle=orthogonalEdgeStyle;rounded=0;orthogonalLoop=1;jettySize=auto;html=1;exitX=0.5;exitY=1;exitDx=0;exitDy=0;entryX=1;entryY=0.5;entryDx=0;entryDy=0;" edge="1" parent="mRWU8JhYGGB55TLCzHCI-22" source="mRWU8JhYGGB55TLCzHCI-89" target="mRWU8JhYGGB55TLCzHCI-86">
          <mxGeometry relative="1" as="geometry" />
        </mxCell>
        <mxCell id="mRWU8JhYGGB55TLCzHCI-97" style="edgeStyle=orthogonalEdgeStyle;rounded=0;orthogonalLoop=1;jettySize=auto;html=1;exitX=1;exitY=0.5;exitDx=0;exitDy=0;entryX=0;entryY=0.5;entryDx=0;entryDy=0;" edge="1" parent="mRWU8JhYGGB55TLCzHCI-22" source="mRWU8JhYGGB55TLCzHCI-84" target="mRWU8JhYGGB55TLCzHCI-95">
          <mxGeometry relative="1" as="geometry" />
        </mxCell>
        <mxCell id="mRWU8JhYGGB55TLCzHCI-98" style="edgeStyle=orthogonalEdgeStyle;rounded=0;orthogonalLoop=1;jettySize=auto;html=1;exitX=0.5;exitY=1;exitDx=0;exitDy=0;entryX=0.5;entryY=0;entryDx=0;entryDy=0;" edge="1" parent="mRWU8JhYGGB55TLCzHCI-22" source="mRWU8JhYGGB55TLCzHCI-95" target="mRWU8JhYGGB55TLCzHCI-88">
          <mxGeometry relative="1" as="geometry" />
        </mxCell>
        <mxCell id="mRWU8JhYGGB55TLCzHCI-101" value="Авторемонтный бизнес" style="swimlane;html=1;childLayout=stackLayout;startSize=20;rounded=0;shadow=0;comic=0;labelBackgroundColor=none;strokeWidth=1;fontFamily=Verdana;fontSize=12;align=center;" vertex="1" parent="1">
          <mxGeometry x="1279" y="29" width="500" height="738" as="geometry" />
        </mxCell>
        <mxCell id="mRWU8JhYGGB55TLCzHCI-102" value="Механик" style="swimlane;html=1;startSize=20;" vertex="1" parent="mRWU8JhYGGB55TLCzHCI-101">
          <mxGeometry y="20" width="250" height="718" as="geometry" />
        </mxCell>
        <mxCell id="mRWU8JhYGGB55TLCzHCI-103" style="edgeStyle=orthogonalEdgeStyle;rounded=0;orthogonalLoop=1;jettySize=auto;html=1;exitX=0.5;exitY=1;exitDx=0;exitDy=0;entryX=0.5;entryY=0;entryDx=0;entryDy=0;" edge="1" parent="mRWU8JhYGGB55TLCzHCI-102" source="mRWU8JhYGGB55TLCzHCI-104" target="mRWU8JhYGGB55TLCzHCI-105">
          <mxGeometry relative="1" as="geometry" />
        </mxCell>
        <mxCell id="mRWU8JhYGGB55TLCzHCI-104" value="" style="ellipse;whiteSpace=wrap;html=1;rounded=0;shadow=0;comic=0;labelBackgroundColor=none;strokeWidth=1;fillColor=#000000;fontFamily=Verdana;fontSize=12;align=center;" vertex="1" parent="mRWU8JhYGGB55TLCzHCI-102">
          <mxGeometry x="105" y="37" width="40" height="40" as="geometry" />
        </mxCell>
        <mxCell id="mRWU8JhYGGB55TLCzHCI-105" value="Авторизироваться" style="rounded=1;whiteSpace=wrap;html=1;shadow=0;comic=0;labelBackgroundColor=none;strokeWidth=1;fontFamily=Verdana;fontSize=12;align=center;arcSize=50;" vertex="1" parent="mRWU8JhYGGB55TLCzHCI-102">
          <mxGeometry x="56" y="92" width="138" height="30" as="geometry" />
        </mxCell>
        <mxCell id="mRWU8JhYGGB55TLCzHCI-108" value="" style="shape=mxgraph.bpmn.shape;html=1;verticalLabelPosition=bottom;labelBackgroundColor=#ffffff;verticalAlign=top;perimeter=ellipsePerimeter;outline=end;symbol=terminate;rounded=0;shadow=0;comic=0;strokeWidth=1;fontFamily=Verdana;fontSize=12;align=center;" vertex="1" parent="mRWU8JhYGGB55TLCzHCI-102">
          <mxGeometry x="105" y="629" width="40" height="40" as="geometry" />
        </mxCell>
        <mxCell id="mRWU8JhYGGB55TLCzHCI-109" value="Заполнить форму" style="rounded=1;whiteSpace=wrap;html=1;shadow=0;comic=0;labelBackgroundColor=none;strokeWidth=1;fontFamily=Verdana;fontSize=12;align=center;arcSize=50;" vertex="1" parent="mRWU8JhYGGB55TLCzHCI-102">
          <mxGeometry x="45.879999999999995" y="332" width="158.25" height="62" as="geometry" />
        </mxCell>
        <mxCell id="mRWU8JhYGGB55TLCzHCI-112" value="Веб-сайт" style="swimlane;html=1;startSize=20;" vertex="1" parent="mRWU8JhYGGB55TLCzHCI-101">
          <mxGeometry x="250" y="20" width="250" height="718" as="geometry" />
        </mxCell>
        <mxCell id="mRWU8JhYGGB55TLCzHCI-114" value="Положить пример работы в базу и опубликовать на сайте" style="rounded=1;whiteSpace=wrap;html=1;shadow=0;comic=0;labelBackgroundColor=none;strokeWidth=1;fontFamily=Verdana;fontSize=12;align=center;arcSize=50;" vertex="1" parent="mRWU8JhYGGB55TLCzHCI-112">
          <mxGeometry x="48.629999999999995" y="518" width="158.25" height="62" as="geometry" />
        </mxCell>
        <mxCell id="mRWU8JhYGGB55TLCzHCI-115" value="Отправить форму для публикации работы" style="rounded=1;whiteSpace=wrap;html=1;shadow=0;comic=0;labelBackgroundColor=none;strokeWidth=1;fontFamily=Verdana;fontSize=12;align=center;arcSize=50;" vertex="1" parent="mRWU8JhYGGB55TLCzHCI-112">
          <mxGeometry x="48.629999999999995" y="147" width="158.25" height="62" as="geometry" />
        </mxCell>
        <mxCell id="mRWU8JhYGGB55TLCzHCI-119" style="edgeStyle=orthogonalEdgeStyle;rounded=0;orthogonalLoop=1;jettySize=auto;html=1;exitX=0.5;exitY=1;exitDx=0;exitDy=0;entryX=1;entryY=0.5;entryDx=0;entryDy=0;" edge="1" parent="mRWU8JhYGGB55TLCzHCI-101" source="mRWU8JhYGGB55TLCzHCI-114" target="mRWU8JhYGGB55TLCzHCI-108">
          <mxGeometry relative="1" as="geometry" />
        </mxCell>
        <mxCell id="mRWU8JhYGGB55TLCzHCI-122" style="edgeStyle=orthogonalEdgeStyle;rounded=0;orthogonalLoop=1;jettySize=auto;html=1;exitX=1;exitY=0.5;exitDx=0;exitDy=0;" edge="1" parent="mRWU8JhYGGB55TLCzHCI-101" source="mRWU8JhYGGB55TLCzHCI-105" target="mRWU8JhYGGB55TLCzHCI-115">
          <mxGeometry relative="1" as="geometry" />
        </mxCell>
        <mxCell id="mRWU8JhYGGB55TLCzHCI-123" style="edgeStyle=orthogonalEdgeStyle;rounded=0;orthogonalLoop=1;jettySize=auto;html=1;exitX=0.5;exitY=1;exitDx=0;exitDy=0;entryX=0.5;entryY=0;entryDx=0;entryDy=0;" edge="1" parent="mRWU8JhYGGB55TLCzHCI-101" source="mRWU8JhYGGB55TLCzHCI-115" target="mRWU8JhYGGB55TLCzHCI-109">
          <mxGeometry relative="1" as="geometry" />
        </mxCell>
        <mxCell id="mRWU8JhYGGB55TLCzHCI-124" style="edgeStyle=orthogonalEdgeStyle;rounded=0;orthogonalLoop=1;jettySize=auto;html=1;exitX=1;exitY=0.5;exitDx=0;exitDy=0;entryX=0.5;entryY=0;entryDx=0;entryDy=0;" edge="1" parent="mRWU8JhYGGB55TLCzHCI-101" source="mRWU8JhYGGB55TLCzHCI-109" target="mRWU8JhYGGB55TLCzHCI-114">
          <mxGeometry relative="1" as="geometry" />
        </mxCell>
      </root>
    </mxGraphModel>
  </diagram>
</mxfile>
